<svg id="visual" viewBox="0 0 960 300" width="960" height="300" xmlns="http://www.w3.org/2000/svg" xmlns:xlink="http://www.w3.org/1999/xlink" version="1.1"><rect x="0" y="0" width="960" height="300" fill="#001220"></rect><path d="M0 196L22.8 198.7C45.7 201.3 91.3 206.7 137 203.8C182.7 201 228.3 190 274 187.5C319.7 185 365.3 191 411.2 197.8C457 204.7 503 212.3 548.8 208.8C594.7 205.3 640.3 190.7 686 185.5C731.7 180.3 777.3 184.7 823 186.7C868.7 188.7 914.3 188.3 937.2 188.2L960 188L960 301L937.2 301C914.3 301 868.7 301 823 301C777.3 301 731.7 301 686 301C640.3 301 594.7 301 548.8 301C503 301 457 301 411.2 301C365.3 301 319.7 301 274 301C228.3 301 182.7 301 137 301C91.3 301 45.7 301 22.8 301L0 301Z" fill="#fa7268"></path><path d="M0 223L22.8 219.3C45.7 215.7 91.3 208.3 137 210.8C182.7 213.3 228.3 225.7 274 226.2C319.7 226.7 365.3 215.3 411.2 210.2C457 205 503 206 548.8 205.7C594.7 205.3 640.3 203.7 686 206.8C731.7 210 777.3 218 823 220.3C868.7 222.7 914.3 219.3 937.2 217.7L960 216L960 301L937.2 301C914.3 301 868.7 301 823 301C777.3 301 731.7 301 686 301C640.3 301 594.7 301 548.8 301C503 301 457 301 411.2 301C365.3 301 319.7 301 274 301C228.3 301 182.7 301 137 301C91.3 301 45.7 301 22.8 301L0 301Z" fill="#ef5f67"></path><path d="M0 240L22.8 240.5C45.7 241 91.3 242 137 244C182.7 246 228.3 249 274 249.7C319.7 250.3 365.3 248.7 411.2 244.8C457 241 503 235 548.8 233.5C594.7 232 640.3 235 686 235C731.7 235 777.3 232 823 231.5C868.7 231 914.3 233 937.2 234L960 235L960 301L937.2 301C914.3 301 868.7 301 823 301C777.3 301 731.7 301 686 301C640.3 301 594.7 301 548.8 301C503 301 457 301 411.2 301C365.3 301 319.7 301 274 301C228.3 301 182.7 301 137 301C91.3 301 45.7 301 22.8 301L0 301Z" fill="#e34c67"></path><path d="M0 242L22.8 243.7C45.7 245.3 91.3 248.7 137 248.8C182.7 249 228.3 246 274 248.2C319.7 250.3 365.3 257.7 411.2 258.8C457 260 503 255 548.8 254.5C594.7 254 640.3 258 686 257C731.7 256 777.3 250 823 250.7C868.7 251.3 914.3 258.7 937.2 262.3L960 266L960 301L937.2 301C914.3 301 868.7 301 823 301C777.3 301 731.7 301 686 301C640.3 301 594.7 301 548.8 301C503 301 457 301 411.2 301C365.3 301 319.7 301 274 301C228.3 301 182.7 301 137 301C91.3 301 45.7 301 22.8 301L0 301Z" fill="#d53867"></path><path d="M0 273L22.8 271.7C45.7 270.3 91.3 267.7 137 266C182.7 264.3 228.3 263.7 274 263.2C319.7 262.7 365.3 262.3 411.2 263C457 263.7 503 265.3 548.8 268C594.7 270.7 640.3 274.3 686 274.3C731.7 274.3 777.3 270.7 823 271.8C868.7 273 914.3 279 937.2 282L960 285L960 301L937.2 301C914.3 301 868.7 301 823 301C777.3 301 731.7 301 686 301C640.3 301 594.7 301 548.8 301C503 301 457 301 411.2 301C365.3 301 319.7 301 274 301C228.3 301 182.7 301 137 301C91.3 301 45.7 301 22.8 301L0 301Z" fill="#c62368"></path></svg>